<?xml version="1.0" encoding="UTF-8"?>
<svg width="103px" height="103px" viewBox="0 0 103 103" version="1.1" xmlns="http://www.w3.org/2000/svg" xmlns:xlink="http://www.w3.org/1999/xlink">
    <!-- Generator: sketchtool 63.1 (101010) - https://sketch.com -->
    <title>4693B513-8509-4D7F-82F5-3375BBD44E31</title>
    <desc>Created with sketchtool.</desc>
    <defs>
        <path d="M14.186,1.382 L26.436,13.658 L13.882,26.181 L1.45,13.72 C-0.595,20.164 0.932,27.496 6.039,32.615 L6.039,32.615 C11.076,37.664 18.273,39.237 24.659,37.331 L24.659,37.331 L62.682,75.442 C60.762,81.824 62.318,89.024 67.355,94.073 L67.355,94.073 C72.319,99.05 79.392,100.649 85.707,98.87 L85.707,98.87 L73.459,86.592 L86.011,74.068 L98.444,86.531 C100.488,80.087 98.961,72.753 93.855,67.635 L93.855,67.635 C88.817,62.586 81.62,61.014 75.234,62.918 L75.234,62.918 L37.211,24.808 C39.131,18.426 37.576,11.226 32.538,6.177 L32.538,6.177 C28.881,2.512 24.081,0.679 19.281,0.679 L19.281,0.679 C17.565,0.679 15.849,0.913 14.186,1.382" id="path-1"></path>
        <linearGradient x1="0.000523664172%" y1="50.0000207%" x2="100.0007%" y2="50.0000207%" id="linearGradient-3">
            <stop stop-color="#00CB8D" offset="0%"></stop>
            <stop stop-color="#D6D6D6" stop-opacity="0.2" offset="100%"></stop>
        </linearGradient>
    </defs>
    <g id="wires" stroke="none" stroke-width="1" fill="none" fill-rule="evenodd">
        <g id="00_Home-table-v02-Copy-2" transform="translate(-762.000000, -2806.000000)">
            <g id="#banners" transform="translate(80.000000, 2533.000000)">
                <g id="banner-boletins" transform="translate(434.000000, 263.000000)">
                    <g id="icon-toolkit-inactive" transform="translate(248.896907, 10.000000)">
                        <g id="Group-6" transform="translate(0.603093, 0.500000)">
                            <g id="Group-3" transform="translate(0.000000, 0.750000)">
                                <mask id="mask-2" fill="white">
                                    <use xlink:href="#path-1"></use>
                                </mask>
                                <g id="Clip-2"></g>
                                <path d="M14.186,1.382 L26.436,13.658 L13.882,26.181 L1.45,13.72 C-0.595,20.164 0.932,27.496 6.039,32.615 L6.039,32.615 C11.076,37.664 18.273,39.237 24.659,37.331 L24.659,37.331 L62.682,75.442 C60.762,81.824 62.318,89.024 67.355,94.073 L67.355,94.073 C72.319,99.05 79.392,100.649 85.707,98.87 L85.707,98.87 L73.459,86.592 L86.011,74.068 L98.444,86.531 C100.488,80.087 98.961,72.753 93.855,67.635 L93.855,67.635 C88.817,62.586 81.62,61.014 75.234,62.918 L75.234,62.918 L37.211,24.808 C39.131,18.426 37.576,11.226 32.538,6.177 L32.538,6.177 C28.881,2.512 24.081,0.679 19.281,0.679 L19.281,0.679 C17.565,0.679 15.849,0.913 14.186,1.382" id="Fill-1" fill="url(#linearGradient-3)" mask="url(#mask-2)"></path>
                            </g>
                            <path d="M32.4371,94.7827 C27.3181,99.8897 19.9851,101.4177 13.5411,99.3727 L26.0031,86.9387 L13.4791,74.3867 L1.2031,86.6357 C-0.5769,80.3197 1.0231,73.2477 5.9991,68.2837 C11.0471,63.2467 18.2481,61.6907 24.6301,63.6097 L62.7401,25.5877 C60.8351,19.2017 62.4081,12.0047 67.4571,6.9677 C72.5751,1.8607 79.9081,0.3337 86.3521,2.3787 L73.8911,14.8107 L86.4141,27.3637 L98.6911,15.1147 C100.4701,21.4307 98.8711,28.5027 93.8951,33.4667 C88.8461,38.5047 81.6451,40.0587 75.2641,38.1397 L37.1531,76.1627 C39.0581,82.5487 37.4861,89.7457 32.4371,94.7827 Z" id="Stroke-4" stroke="#FFFFFF" stroke-width="3" stroke-linecap="round"></path>
                        </g>
                    </g>
                </g>
            </g>
        </g>
    </g>
</svg>