<?xml version="1.0" encoding="UTF-8"?>
<svg width="95px" height="120px" viewBox="0 0 95 120" version="1.1" xmlns="http://www.w3.org/2000/svg" xmlns:xlink="http://www.w3.org/1999/xlink">
    <!-- Generator: sketchtool 64 (101010) - https://sketch.com -->
    <title>157BDDE6-7230-41C7-A597-BD58B989C7FF</title>
    <desc>Created with sketchtool.</desc>
    <defs>
                <linearGradient x1="0.000523664172%" y1="50.0000207%" x2="100.0007%" y2="50.0000207%" id="linearGradient-1">
            <stop stop-color="#00CB8D" offset="0%"></stop>
            <stop stop-color="#00CB8D" stop-opacity="0.2" offset="100%"></stop>
        </linearGradient>
        <linearGradient x1="0.000523664172%" y1="50.0000207%" x2="100.0007%" y2="50.0000207%" id="linearGradient-2">
            <stop stop-color="#00CB8D" offset="0%"></stop>
            <stop stop-color="#00CB8D" stop-opacity="0.2" offset="100%"></stop>
        </linearGradient>
        <linearGradient x1="0.000523664172%" y1="50.0000207%" x2="100.0007%" y2="50.0000207%" id="linearGradient-3">
            <stop stop-color="#00CB8D" offset="0%"></stop>
            <stop stop-color="#00CB8D" stop-opacity="0.2" offset="100%"></stop>
        </linearGradient>
    </defs>
    <g id="wires" stroke="none" stroke-width="1" fill="none" fill-rule="evenodd">
        <g id="00_Home-table" transform="translate(-1196.000000, -3608.000000)">
            <g id="bloco-dark-bkg" transform="translate(0.000000, 2247.000000)">
                <g id="#banners" transform="translate(80.000000, 1084.000000)">
                    <g id="banner-boletins-copy" transform="translate(871.000000, 263.000000)">
                        <g id="icon-casos-inspiradores-inactive" transform="translate(246.896907, 15.000000)">
                            <g id="Group-21" transform="translate(0.000000, 0.000000)">
                                <g id="Group-3" transform="translate(0.000000, 0.010588)">
                                    <g id="shape-grad" transform="translate(43.893529, 43.816765)">
                                        <path d="M-4.07517157e-14,24.5426471 C-4.07517157e-14,33.2982353 4.58382353,40.9782353 11.4794118,45.3247059 L11.4794118,45.3247059 L11.4794118,57.0008824 L37.605,57.0008824 L37.605,45.3247059 C44.5005882,40.9782353 49.0844118,33.2982353 49.0844118,24.5426471 L49.0844118,24.5426471 C49.0844118,10.9888235 38.0955882,-1.50467873e-13 24.5417647,-1.50467873e-13 L24.5417647,-1.50467873e-13 C10.9888235,-1.50467873e-13 -4.07517157e-14,10.9888235 -4.07517157e-14,24.5426471" id="Fill-1" fill="url(#linearGradient-1)"></path>
                                        <path d="M11.5657369,61.5352758 C11.5657369,68.7019818 17.3754999,74.5117448 24.5422059,74.5117448 C31.7089118,74.5117448 37.5186749,68.7019818 37.5186749,61.5352758" id="Path" fill="url(#linearGradient-2)"></path>
                                    </g>
                                    <g id="icon-line" transform="translate(0.441176, 0.500868)" stroke="#FFFFFF" stroke-linecap="round" stroke-width="3">
                                        <path d="M25.4298372,97.259493 C25.4298372,102.927654 30.0247897,107.522607 35.6929508,107.522607 C41.361112,107.522607 45.9560645,102.927654 45.9560645,97.259493" id="Path"></path>
                                        <path d="M35.6924746,30.3395128 C48.7256577,30.3395128 59.3289899,40.942845 59.3289899,53.9750757 C59.3289899,62.1456994 55.1951001,69.627659 48.2703583,73.9920561 L46.9368455,74.8331217 L46.9368455,76.4095244 L46.9368455,86.1584559 L24.4490562,86.1584559 L24.4490562,76.4095244 L24.4490562,74.8331217 L23.1145909,73.9920561 C16.1908016,69.627659 12.0569118,62.1456994 12.0569118,53.9750757 C12.0569118,40.942845 22.6592915,30.3395128 35.6924746,30.3395128" id="Fill-9"></path>
                                        <line x1="68.8933235" y1="15.9941029" x2="59.3762647" y2="25.5111618" id="Stroke-13"></line>
                                        <line x1="2.58616658e-14" y1="15.9941029" x2="9.51705882" y2="25.5111618" id="Stroke-15"></line>
                                        <line x1="25.2207704" y1="92.1929042" x2="45.9560645" y2="92.1929042" id="Line-5"></line>
                                        <line x1="34.4467059" y1="0.882088235" x2="34.4467059" y2="16.1055882" id="Stroke-11"></line>
                                    </g>
                                </g>
                                <g id="Group-20" transform="translate(0.000000, 0.010588)"></g>
                            </g>
                        </g>
                    </g>
                </g>
            </g>
        </g>
    </g>
</svg>