<?xml version="1.0" encoding="UTF-8"?>
<svg width="114px" height="84px" viewBox="0 0 114 84" version="1.1" xmlns="http://www.w3.org/2000/svg" xmlns:xlink="http://www.w3.org/1999/xlink">
    <!-- Generator: sketchtool 64 (101010) - https://sketch.com -->
    <title>F08A0CDC-2F70-4513-9EDB-83952491EC73</title>
    <desc>Created with sketchtool.</desc>
    <defs>
        <linearGradient x1="0.000523664172%" y1="50.0000207%" x2="100.0007%" y2="50.0000207%" id="linearGradient-1">
            <stop stop-color="#00CB8D" offset="0%"></stop>
            <stop stop-color="#00CB8D" stop-opacity="0.2" offset="100%"></stop>
        </linearGradient>
        <linearGradient x1="0.000523664172%" y1="50.0000207%" x2="100.0007%" y2="50.0000207%" id="linearGradient-2">
            <stop stop-color="#00CB8D" offset="0%"></stop>
            <stop stop-color="#00CB8D" stop-opacity="0.2" offset="100%"></stop>
        </linearGradient>
    </defs>
    <g id="wires" stroke="none" stroke-width="1" fill="none" fill-rule="evenodd">
        <g id="00_Home-table" transform="translate(-1184.000000, -3363.000000)">
            <g id="bloco-dark-bkg" transform="translate(0.000000, 2247.000000)">
                <g id="#banners" transform="translate(80.000000, 1084.000000)">
                    <g id="banner-base" transform="translate(869.000000, 0.000000)">
                        <g id="icon-base-de-dados" transform="translate(235.896907, 31.000000)">
                            <g id="Group-14" transform="translate(0.603093, 0.500000)">
                                <polygon id="Fill-1" fill="url(#linearGradient-1)" points="42.7105568 84 111.77201 84 111.77201 60.9040096 42.7105568 60.9040096"></polygon>
                                <polygon id="Fill-3" fill="url(#linearGradient-2)" points="42.7105568 53.797551 111.77201 53.797551 111.77201 30.702449 42.7105568 30.702449"></polygon>
                                <polygon id="Fill-5" fill="url(#linearGradient-1)" points="42.7105568 23.5959904 111.77201 23.5959904 111.77201 0.5 42.7105568 0.5"></polygon>
                                <g id="Group-13" transform="translate(0.000000, 19.616477)" stroke="#FFFFFF" stroke-width="3">
                                    <path d="M44.0007463,22.3838959 C44.0007463,34.534436 34.1509133,44.3835227 22.0003731,44.3835227 C9.84983294,44.3835227 0,34.534436 0,22.3838959 C0,10.2333557 9.84983294,0.383522727 22.0003731,0.383522727 C34.1509133,0.383522727 44.0007463,10.2333557 44.0007463,22.3838959 Z" id="Stroke-9"></path>
                                    <line x1="60.2954631" y1="59.1464466" x2="39.0598949" y2="37.9099295" id="Stroke-11" stroke-linecap="round"></line>
                                </g>
                            </g>
                        </g>
                    </g>
                </g>
            </g>
        </g>
    </g>
</svg>