<svg xmlns="http://www.w3.org/2000/svg" width="96.9" height="45" viewBox="0 0 96.9 45">
  <g>
    <path d="M0,22.5V1.2C0,.3.3,0,1.2,0H30.3c.8,0,1.2.3,1.2,1.2V21.3c0,.9-.4,1.2-1.2,1.2H28.2c-.9,0-1.2-.3-1.2-1.2V5.7c0-.9-.4-1.2-1.3-1.2H5.7c-.9,0-1.2.3-1.2,1.2V43.8c0,.3,0,.7-.3.9a1.9,1.9,0,0,1-.8.3,17.6,17.6,0,0,1-2.3,0A1,1,0,0,1,0,43.9Z" fill="#fff"/>
    <path d="M9,27V10.2C9,9.3,9.3,9,10.2,9H21.3a1.1,1.1,0,0,1,1.2,1.2v2.1a1.1,1.1,0,0,1-1.2,1.2H14.7c-.8,0-1.2.4-1.2,1.1V39.3a1.1,1.1,0,0,0,1.2,1.2H25.8A1.1,1.1,0,0,0,27,39.3V28.2c0-.8.3-1.2,1.2-1.2h2.2a1,1,0,0,1,1.1,1.1V43.9A1,1,0,0,1,30.4,45H10.1A1,1,0,0,1,9,43.9Z" fill="#fff"/>
    <path d="M94.7,35.9H93.3c-.6,0-.8-.1-1-.7S91.4,33,91,31.9a.5.5,0,0,0-.5-.3H81.6c-.2,0-.3.1-.4.3l-1.3,3.3c-.2.6-.4.7-1,.7H76.1c-.8,0-1-.2-.7-.9s1.1-2.9,1.7-4.3L84,13.6c.2-.7.4-.8,1.1-.8h2.1a1,1,0,0,1,1,.7l2.3,5.6c2.1,5.2,4.1,10.5,6.2,15.7.4.9.2,1.1-.7,1.1ZM82.8,27.6h6.6l-3.3-8.9Z" fill="#fff"/>
    <path d="M72.7,29.8v3.4a.9.9,0,0,1-.5.9c-4,2.5-8.2,3-12.5.9A11.9,11.9,0,1,1,71.4,14.2a2.1,2.1,0,0,1,.8.6c.4.3.4.5.2.9L70.8,18c-.4.5-.6.5-1.1.1A8.2,8.2,0,0,0,62.9,17a7.2,7.2,0,0,0-5.2,6.1,7.6,7.6,0,0,0,10.7,8.2.5.5,0,0,0,.4-.5c-.1-1.5-.1-2.9-.1-4.4s.2-.8.9-.8h2.2c.7,0,.9.2.9.9Z" fill="#fff"/>
    <path d="M44.9,24.4V13.2a.5.5,0,0,1,.6-.4h3.1c.5,0,.7.3.8.8V35.2c-.1.5-.3.7-.8.7h-3c-.6,0-.7-.2-.7-.8V24.4Z" fill="#fff"/>
    <path d="M18,27V19.1c0-.8.3-1.1,1.1-1.1h2.3a1,1,0,0,1,1.1,1.1V35c0,.7-.3,1-1.1,1H19.1c-.8,0-1.1-.3-1.1-1.1Z" fill="#fff"/>
  </g>
</svg>
